<svg width="256" height="256" viewBox="0 0 256 256" fill="none" xmlns="http://www.w3.org/2000/svg">
<path d="M27.9014 113.101C31.1014 116.301 35.4418 118.1 39.9679 118.1C43.3682 118.1 46.663 117.085 49.4489 115.223L37.301 127.371C34.101 130.571 32.3026 134.911 32.3026 139.437C32.3026 143.964 34.1004 148.304 37.301 151.504C40.501 154.704 44.8415 156.502 49.3676 156.502C52.7673 156.502 56.0626 155.487 58.8486 153.626L52.4729 160.002C49.2729 163.202 47.4745 167.542 47.4745 172.068C47.4745 176.595 49.2722 180.935 52.4729 184.135C55.6729 187.335 60.0134 189.133 64.5394 189.133C67.9391 189.133 71.2345 188.118 74.0204 186.257L72.4626 187.815C69.2626 191.015 67.4642 195.356 67.4642 199.882C67.4642 204.408 69.262 208.748 72.4626 211.948C75.6626 215.148 80.0031 216.947 84.5292 216.947C89.0553 216.947 93.3958 215.149 96.5958 211.948L112.767 195.777C110.905 198.563 109.89 201.859 109.89 205.258C109.89 209.784 111.688 214.125 114.889 217.325C118.089 220.525 122.429 222.323 126.955 222.323C131.482 222.323 135.822 220.525 139.022 217.325L163.592 192.755C161.73 195.54 160.716 198.836 160.716 202.236C160.716 206.762 162.514 211.102 165.714 214.302C168.914 217.502 173.255 219.3 177.781 219.3C182.307 219.3 186.648 217.503 189.848 214.302L228.098 176.051C231.298 172.851 233.097 168.511 233.097 163.985C233.097 159.459 231.299 155.118 228.098 151.918C224.898 148.718 220.558 146.92 216.032 146.92C212.632 146.92 209.337 147.935 206.551 149.796L214.558 141.789C217.758 138.589 219.556 134.248 219.556 129.722C219.556 125.196 217.759 120.856 214.558 117.656C211.358 114.456 207.017 112.657 202.491 112.657C199.092 112.657 195.796 113.672 193.01 115.533L209.181 99.3626C212.381 96.1626 214.18 91.8221 214.18 87.296C214.18 82.7699 212.382 78.4294 209.181 75.2294C205.981 72.0294 201.641 70.231 197.115 70.231C193.715 70.231 190.42 71.2461 187.634 73.1072L197.932 62.809C201.132 59.6089 202.93 55.2685 202.93 50.7424C202.93 46.2163 201.133 41.8758 197.932 38.6758C194.732 35.4758 190.392 33.6774 185.866 33.6774C181.339 33.6774 176.999 35.4752 173.799 38.6758L150.86 61.6147C152.722 58.8288 153.736 55.5334 153.736 52.1338C153.736 47.6077 151.938 43.2672 148.738 40.0672C145.538 36.8672 141.197 35.0688 136.671 35.0688C132.145 35.0688 127.805 36.8665 124.605 40.0672L92.407 72.2649C94.2687 69.479 95.2838 66.1837 95.2838 62.7833C95.2838 58.2573 93.486 53.9168 90.2853 50.7168C87.0854 47.5168 82.7449 45.7184 78.2188 45.7184C73.6927 45.7184 69.3522 47.5161 66.1522 50.7168L27.9014 88.9677C24.7014 92.1677 22.903 96.5081 22.903 101.034C22.903 105.56 24.7007 109.901 27.9014 113.101V113.101Z" fill="white"/>
<path d="M232.594 185.838L231.413 187.019C230.952 187.48 230.952 188.228 231.413 188.69C231.875 189.151 232.623 189.151 233.084 188.69L234.265 187.509L235.446 188.69C235.907 189.151 236.655 189.151 237.117 188.69C237.578 188.228 237.578 187.48 237.117 187.019L235.936 185.838L237.117 184.657C237.578 184.196 237.578 183.448 237.117 182.986C236.886 182.755 236.584 182.64 236.281 182.64C235.978 182.64 235.676 182.755 235.445 182.986L234.264 184.167L233.083 182.986C232.852 182.755 232.55 182.64 232.248 182.64C231.945 182.64 231.643 182.755 231.412 182.986C230.95 183.448 230.95 184.196 231.412 184.657L232.593 185.838H232.594Z" fill="white"/>
<path d="M63.8733 211.277L62.6925 212.458C62.231 212.92 62.231 213.668 62.6925 214.129C63.1539 214.591 63.9021 214.591 64.3635 214.129L65.5443 212.948L66.7251 214.129C67.1865 214.591 67.9347 214.591 68.3961 214.129C68.8576 213.668 68.8576 212.92 68.3961 212.458L67.2153 211.277L68.3961 210.097C68.8576 209.635 68.8576 208.887 68.3961 208.426C68.1651 208.195 67.863 208.079 67.5603 208.079C67.2576 208.079 66.9555 208.195 66.7245 208.426L65.5437 209.606L64.3629 208.426C64.1318 208.195 63.8297 208.079 63.527 208.079C63.2243 208.079 62.9222 208.195 62.6912 208.426C62.2297 208.887 62.2297 209.635 62.6912 210.097L63.872 211.277H63.8733Z" fill="white"/>
<path d="M33.6615 106.616L32.4807 107.796C32.0192 108.258 32.0192 109.006 32.4807 109.468C32.9421 109.929 33.6903 109.929 34.1517 109.468L35.3325 108.287L36.5133 109.468C36.9747 109.929 37.7229 109.929 38.1843 109.468C38.6458 109.006 38.6458 108.258 38.1843 107.796L37.0035 106.616L38.1843 105.435C38.6458 104.973 38.6458 104.225 38.1843 103.764C37.9533 103.533 37.6512 103.418 37.3485 103.418C37.0458 103.418 36.7437 103.533 36.5127 103.764L35.3319 104.945L34.1511 103.764C33.92 103.533 33.6179 103.418 33.3152 103.418C33.0125 103.418 32.7104 103.533 32.4794 103.764C32.0179 104.225 32.0179 104.973 32.4794 105.435L33.6602 106.616H33.6615Z" fill="white"/>
<path d="M175.779 45.9328L174.598 47.1136C174.137 47.5751 174.137 48.3232 174.598 48.7847C175.06 49.2461 175.808 49.2461 176.269 48.7847L177.45 47.6039L178.631 48.7847C179.092 49.2461 179.841 49.2461 180.302 48.7847C180.764 48.3232 180.764 47.5751 180.302 47.1136L179.121 45.9328L180.302 44.752C180.764 44.2906 180.764 43.5424 180.302 43.081C180.071 42.8499 179.769 42.7347 179.466 42.7347C179.164 42.7347 178.861 42.8499 178.63 43.081L177.45 44.2618L176.269 43.081C176.038 42.8499 175.736 42.7347 175.433 42.7347C175.13 42.7347 174.828 42.8499 174.597 43.081C174.136 43.5424 174.136 44.2906 174.597 44.752L175.778 45.9328H175.779Z" fill="white"/>
<path d="M154.161 212.923C156.064 212.923 157.613 214.472 157.613 216.376C157.613 218.279 156.064 219.828 154.161 219.828C152.257 219.828 150.708 218.279 150.708 216.376C150.708 214.472 152.257 212.923 154.161 212.923ZM154.161 217.464C154.761 217.464 155.249 216.976 155.249 216.376C155.249 215.775 154.761 215.287 154.161 215.287C153.56 215.287 153.072 215.775 153.072 216.376C153.072 216.976 153.56 217.464 154.161 217.464Z" fill="white"/>
<path d="M219.223 102.922C221.126 102.922 222.675 104.471 222.675 106.374C222.675 108.278 221.126 109.827 219.223 109.827C217.32 109.827 215.771 108.278 215.771 106.374C215.771 104.471 217.32 102.922 219.223 102.922ZM219.223 107.463C219.823 107.463 220.312 106.975 220.312 106.374C220.312 105.774 219.823 105.286 219.223 105.286C218.623 105.286 218.134 105.774 218.134 106.374C218.134 106.975 218.623 107.463 219.223 107.463Z" fill="white"/>
<path d="M74.7072 47.5181C76.6105 47.5181 78.1593 49.0669 78.1593 50.9703C78.1593 52.8736 76.6105 54.4224 74.7072 54.4224C72.8038 54.4224 71.255 52.8736 71.255 50.9703C71.255 49.0669 72.8038 47.5181 74.7072 47.5181ZM74.7072 52.0589C75.3075 52.0589 75.7958 51.5706 75.7958 50.9703C75.7958 50.37 75.3075 49.8817 74.7072 49.8817C74.1068 49.8817 73.6185 50.37 73.6185 50.9703C73.6185 51.5706 74.1068 52.0589 74.7072 52.0589Z" fill="white"/>
<path d="M34.4907 155.304C36.3941 155.304 37.9429 156.852 37.9429 158.756C37.9429 160.659 36.3941 162.208 34.4907 162.208C32.5874 162.208 31.0386 160.659 31.0386 158.756C31.0386 156.852 32.5874 155.304 34.4907 155.304ZM34.4907 159.844C35.0911 159.844 35.5794 159.356 35.5794 158.756C35.5794 158.155 35.0911 157.667 34.4907 157.667C33.8904 157.667 33.4021 158.155 33.4021 158.756C33.4021 159.356 33.8904 159.844 34.4907 159.844Z" fill="white"/>
<path d="M27.9014 113.101C31.1014 116.301 35.4418 118.1 39.9679 118.1C43.3682 118.1 46.663 117.085 49.4489 115.223L37.301 127.371C34.101 130.571 32.3026 134.911 32.3026 139.437C32.3026 143.964 34.1004 148.304 37.301 151.504C40.501 154.704 44.8415 156.502 49.3676 156.502C52.7673 156.502 56.0626 155.487 58.8486 153.626L52.4729 160.002C49.2729 163.202 47.4745 167.542 47.4745 172.068C47.4745 176.595 49.2722 180.935 52.4729 184.135C55.6729 187.335 60.0134 189.133 64.5394 189.133C67.9391 189.133 71.2345 188.118 74.0204 186.257L72.4626 187.815C69.2626 191.015 67.4642 195.356 67.4642 199.882C67.4642 204.408 69.262 208.748 72.4626 211.948C75.6626 215.148 80.0031 216.947 84.5292 216.947C89.0553 216.947 93.3958 215.149 96.5958 211.948L112.767 195.777C110.905 198.563 109.89 201.859 109.89 205.258C109.89 209.784 111.688 214.125 114.889 217.325C118.089 220.525 122.429 222.323 126.955 222.323C131.482 222.323 135.822 220.525 139.022 217.325L163.592 192.755C161.73 195.54 160.716 198.836 160.716 202.236C160.716 206.762 162.514 211.102 165.714 214.302C168.914 217.502 173.255 219.3 177.781 219.3C182.307 219.3 186.648 217.503 189.848 214.302L228.098 176.051C231.298 172.851 233.097 168.511 233.097 163.985C233.097 159.459 231.299 155.118 228.098 151.918C224.898 148.718 220.558 146.92 216.032 146.92C212.632 146.92 209.337 147.935 206.551 149.796L214.558 141.789C217.758 138.589 219.556 134.248 219.556 129.722C219.556 125.196 217.759 120.856 214.558 117.656C211.358 114.456 207.017 112.657 202.491 112.657C199.092 112.657 195.796 113.672 193.01 115.533L209.181 99.3626C212.381 96.1626 214.18 91.8221 214.18 87.296C214.18 82.7699 212.382 78.4294 209.181 75.2294C205.981 72.0294 201.641 70.231 197.115 70.231C193.715 70.231 190.42 71.2461 187.634 73.1072L197.932 62.809C201.132 59.6089 202.93 55.2685 202.93 50.7424C202.93 46.2163 201.133 41.8758 197.932 38.6758C194.732 35.4758 190.392 33.6774 185.866 33.6774C181.339 33.6774 176.999 35.4752 173.799 38.6758L150.86 61.6147C152.722 58.8288 153.736 55.5334 153.736 52.1338C153.736 47.6077 151.938 43.2672 148.738 40.0672C145.538 36.8672 141.197 35.0688 136.671 35.0688C132.145 35.0688 127.805 36.8665 124.605 40.0672L92.407 72.2649C94.2687 69.479 95.2838 66.1837 95.2838 62.7833C95.2838 58.2573 93.486 53.9168 90.2853 50.7168C87.0854 47.5168 82.7449 45.7184 78.2188 45.7184C73.6927 45.7184 69.3522 47.5161 66.1522 50.7168L27.9014 88.9677C24.7014 92.1677 22.903 96.5081 22.903 101.034C22.903 105.56 24.7007 109.901 27.9014 113.101V113.101Z" fill="#E6E6E6"/>
<path d="M232.594 185.838L231.413 187.019C230.952 187.48 230.952 188.228 231.413 188.69C231.875 189.151 232.623 189.151 233.084 188.69L234.265 187.509L235.446 188.69C235.907 189.151 236.655 189.151 237.117 188.69C237.578 188.228 237.578 187.48 237.117 187.019L235.936 185.838L237.117 184.657C237.578 184.196 237.578 183.448 237.117 182.986C236.886 182.755 236.584 182.64 236.281 182.64C235.978 182.64 235.676 182.755 235.445 182.986L234.264 184.167L233.083 182.986C232.852 182.755 232.55 182.64 232.248 182.64C231.945 182.64 231.643 182.755 231.412 182.986C230.95 183.448 230.95 184.196 231.412 184.657L232.593 185.838H232.594Z" fill="#C21D53"/>
<path d="M63.8733 211.277L62.6925 212.458C62.231 212.92 62.231 213.668 62.6925 214.129C63.1539 214.591 63.9021 214.591 64.3635 214.129L65.5443 212.948L66.7251 214.129C67.1865 214.591 67.9347 214.591 68.3961 214.129C68.8576 213.668 68.8576 212.92 68.3961 212.458L67.2153 211.277L68.3961 210.097C68.8576 209.635 68.8576 208.887 68.3961 208.426C68.1651 208.195 67.863 208.079 67.5603 208.079C67.2576 208.079 66.9555 208.195 66.7245 208.426L65.5437 209.606L64.3629 208.426C64.1318 208.195 63.8297 208.079 63.527 208.079C63.2243 208.079 62.9222 208.195 62.6912 208.426C62.2297 208.887 62.2297 209.635 62.6912 210.097L63.872 211.277H63.8733Z" fill="#C21D53"/>
<path d="M33.6615 106.616L32.4807 107.796C32.0192 108.258 32.0192 109.006 32.4807 109.468C32.9421 109.929 33.6903 109.929 34.1517 109.468L35.3325 108.287L36.5133 109.468C36.9747 109.929 37.7229 109.929 38.1843 109.468C38.6458 109.006 38.6458 108.258 38.1843 107.796L37.0035 106.616L38.1843 105.435C38.6458 104.973 38.6458 104.225 38.1843 103.764C37.9533 103.533 37.6512 103.418 37.3485 103.418C37.0458 103.418 36.7437 103.533 36.5127 103.764L35.3319 104.945L34.1511 103.764C33.92 103.533 33.6179 103.418 33.3152 103.418C33.0125 103.418 32.7104 103.533 32.4794 103.764C32.0179 104.225 32.0179 104.973 32.4794 105.435L33.6602 106.616H33.6615Z" fill="#C21D53"/>
<path d="M175.779 45.9328L174.598 47.1136C174.137 47.5751 174.137 48.3232 174.598 48.7847C175.06 49.2461 175.808 49.2461 176.269 48.7847L177.45 47.6039L178.631 48.7847C179.092 49.2461 179.841 49.2461 180.302 48.7847C180.764 48.3232 180.764 47.5751 180.302 47.1136L179.121 45.9328L180.302 44.752C180.764 44.2906 180.764 43.5424 180.302 43.081C180.071 42.8499 179.769 42.7347 179.466 42.7347C179.164 42.7347 178.861 42.8499 178.63 43.081L177.45 44.2618L176.269 43.081C176.038 42.8499 175.736 42.7347 175.433 42.7347C175.13 42.7347 174.828 42.8499 174.597 43.081C174.136 43.5424 174.136 44.2906 174.597 44.752L175.778 45.9328H175.779Z" fill="#C21D53"/>
<path d="M154.161 212.923C156.064 212.923 157.613 214.472 157.613 216.376C157.613 218.279 156.064 219.828 154.161 219.828C152.257 219.828 150.708 218.279 150.708 216.376C150.708 214.472 152.257 212.923 154.161 212.923ZM154.161 217.464C154.761 217.464 155.249 216.976 155.249 216.376C155.249 215.775 154.761 215.287 154.161 215.287C153.56 215.287 153.072 215.775 153.072 216.376C153.072 216.976 153.56 217.464 154.161 217.464Z" fill="#C21D53"/>
<path d="M219.223 102.922C221.126 102.922 222.675 104.471 222.675 106.374C222.675 108.278 221.126 109.827 219.223 109.827C217.32 109.827 215.771 108.278 215.771 106.374C215.771 104.471 217.32 102.922 219.223 102.922ZM219.223 107.463C219.823 107.463 220.312 106.975 220.312 106.374C220.312 105.774 219.823 105.286 219.223 105.286C218.623 105.286 218.134 105.774 218.134 106.374C218.134 106.975 218.623 107.463 219.223 107.463Z" fill="#C21D53"/>
<path d="M74.7072 47.5181C76.6105 47.5181 78.1593 49.0669 78.1593 50.9703C78.1593 52.8736 76.6105 54.4224 74.7072 54.4224C72.8038 54.4224 71.255 52.8736 71.255 50.9703C71.255 49.0669 72.8038 47.5181 74.7072 47.5181ZM74.7072 52.0589C75.3075 52.0589 75.7958 51.5706 75.7958 50.9703C75.7958 50.37 75.3075 49.8817 74.7072 49.8817C74.1068 49.8817 73.6185 50.37 73.6185 50.9703C73.6185 51.5706 74.1068 52.0589 74.7072 52.0589Z" fill="#C21D53"/>
<path d="M34.4907 155.304C36.3941 155.304 37.9429 156.852 37.9429 158.756C37.9429 160.659 36.3941 162.208 34.4907 162.208C32.5874 162.208 31.0386 160.659 31.0386 158.756C31.0386 156.852 32.5874 155.304 34.4907 155.304ZM34.4907 159.844C35.0911 159.844 35.5794 159.356 35.5794 158.756C35.5794 158.155 35.0911 157.667 34.4907 157.667C33.8904 157.667 33.4021 158.155 33.4021 158.756C33.4021 159.356 33.8904 159.844 34.4907 159.844Z" fill="#C21D53"/>
<path d="M76.3539 168.53C72.3315 168.53 69.0598 165.258 69.0598 161.236V106.507H137.904C138.746 106.507 139.582 106.391 140.389 106.163C141.726 105.786 142.98 105.093 144.017 104.16L160.735 89.1065C161.908 88.0512 163.422 87.4694 165 87.4694H179.647C183.67 87.4694 186.942 90.7417 186.942 94.7635V161.235C186.942 165.258 183.67 168.529 179.647 168.529H76.3552L76.3539 168.53Z" fill="white"/>
<path d="M69.0592 106.484V95.2934C69.0592 90.9798 72.569 87.47 76.8826 87.47H101.24C104.88 87.47 108.296 89.0745 110.62 91.8739L124.918 106.484H69.0598H69.0592Z" fill="#C21D53"/>
<g style="mix-blend-mode:multiply">
<path d="M186.41 89.6583C185.267 88.7923 183.898 88.2093 182.41 88.0141C182.047 87.9661 181.678 87.9418 181.302 87.9418H166.655C164.784 87.9418 162.988 88.6311 161.598 89.8829L151.603 98.8832L144.879 104.936C143.978 105.748 142.886 106.351 141.723 106.68C141.02 106.878 140.293 106.979 139.56 106.979H127.094L126.632 106.506L125.473 105.322L125.451 105.3L113.155 92.7347C112.643 92.1223 112.083 91.5623 111.483 91.0592C109.701 89.5635 107.564 88.5632 105.273 88.153C104.496 88.0135 103.701 87.9418 102.895 87.9418H78.539C73.5719 87.9418 69.5316 91.9821 69.5316 96.9491V162.892C69.5316 163.068 69.5367 163.242 69.5476 163.415C69.5598 163.612 69.5783 163.808 69.6039 164.001C69.7633 165.215 70.1806 166.349 70.7982 167.346C70.9377 167.571 71.0875 167.789 71.2468 167.999C71.7403 168.651 72.3246 169.229 72.9819 169.714H186.33C187.199 169.072 187.942 168.268 188.513 167.346C189.147 166.325 189.569 165.159 189.719 163.912C189.76 163.577 189.781 163.236 189.781 162.892V96.4199C189.781 93.6621 188.456 91.2071 186.41 89.6583ZM71.8996 96.9491C71.8996 93.2883 74.8775 90.3098 78.539 90.3098H102.895C105.467 90.3098 107.914 91.1962 109.862 92.7917C110.416 93.2455 110.93 93.7568 111.395 94.3219L122.16 105.322L123.297 106.484L123.318 106.506L123.759 106.956H71.8996V96.9491ZM78.0097 169.002C77.1361 169.002 76.3047 168.818 75.5527 168.486C74.9147 168.205 74.3335 167.818 73.8318 167.346C73.4977 167.033 73.1988 166.683 72.9422 166.302C72.2843 165.327 71.8996 164.153 71.8996 162.892V109.347H139.56C140.517 109.347 141.461 109.214 142.366 108.958C143.875 108.532 145.278 107.764 146.464 106.696L153.187 100.643L163.183 91.6423C164.137 90.7827 165.37 90.3098 166.655 90.3098H181.302C182.564 90.3098 183.739 90.6944 184.714 91.353C185.667 91.9968 186.429 92.9018 186.897 93.9648C187.228 94.7162 187.413 95.5469 187.413 96.4199V162.892C187.413 163.239 187.383 163.58 187.327 163.912C187.1 165.256 186.433 166.452 185.48 167.346C184.387 168.373 182.916 169.002 181.302 169.002H78.0097Z" fill="#E6E6E6"/>
</g>
<path d="M186.41 89.6582C184.861 87.6109 182.406 86.2861 179.646 86.2861H164.999C163.128 86.2861 161.332 86.9754 159.942 88.2272L149.946 97.2275L143.224 103.28C142.322 104.092 141.23 104.695 140.067 105.023C139.364 105.222 138.637 105.322 137.903 105.322H67.8751V161.236C67.8751 161.339 67.877 161.442 67.8809 161.544C67.9103 162.369 68.0582 163.163 68.3078 163.912C68.7468 165.229 69.502 166.404 70.4818 167.346C70.7238 167.578 70.9791 167.796 71.2466 167.999C72.6674 169.075 74.4377 169.714 76.3538 169.714H179.646C181.923 169.714 183.994 168.812 185.518 167.346C186.498 166.404 187.253 165.229 187.692 163.912C187.942 163.163 188.09 162.369 188.119 161.544C188.123 161.442 188.125 161.339 188.125 161.236V94.7642C188.125 92.848 187.486 91.079 186.41 89.6582ZM72.942 166.302C71.3145 165.203 70.2431 163.342 70.2431 161.236V107.69H137.903C138.861 107.69 139.805 107.558 140.71 107.302C142.219 106.877 143.622 106.108 144.808 105.04L151.531 98.9869L161.527 89.9866C162.481 89.127 163.714 88.6541 164.999 88.6541H179.646C181.753 88.6541 183.615 89.7261 184.714 91.353C185.372 92.3277 185.757 93.5021 185.757 94.7642V161.236C185.757 164.605 183.016 167.346 179.646 167.346H76.3538C75.0911 167.346 73.9167 166.961 72.942 166.302Z" fill="black"/>
<path d="M126.596 106.506L125.437 105.322L123.795 103.644L111.499 91.079C111.494 91.0726 111.489 91.0656 111.483 91.0592C108.934 88.0237 105.208 86.2861 101.24 86.2861H76.8825C71.9161 86.2861 67.8751 90.3264 67.8751 95.2934V107.668H127.733L126.596 106.506ZM109.739 92.6662L109.862 92.7917L122.103 105.3H70.2431V95.2934C70.2431 91.632 73.2217 88.6541 76.8825 88.6541H101.24C104.542 88.6541 107.64 90.1165 109.739 92.6662Z" fill="black"/>
<path d="M210.161 168.53C210.161 169.184 209.631 169.714 208.977 169.714H46.914C46.2605 169.714 45.73 169.184 45.73 168.53C45.73 167.876 46.2605 167.346 46.914 167.346H208.977C209.631 167.346 210.161 167.876 210.161 168.53Z" fill="black"/>
<path d="M42.0294 169.714H36.6368C35.9827 169.714 35.4528 169.184 35.4528 168.53C35.4528 167.876 35.9827 167.346 36.6368 167.346H42.0294C42.6835 167.346 43.2134 167.876 43.2134 168.53C43.2134 169.184 42.6835 169.714 42.0294 169.714Z" fill="black"/>
<path d="M68.5837 163.912H63.1911C62.537 163.912 62.0071 163.382 62.0071 162.728C62.0071 162.074 62.537 161.544 63.1911 161.544H68.5837C69.2378 161.544 69.7677 162.074 69.7677 162.728C69.7677 163.382 69.2378 163.912 68.5837 163.912Z" fill="black"/>
<path d="M58.3066 163.912H52.914C52.2599 163.912 51.73 163.382 51.73 162.728C51.73 162.074 52.2599 161.544 52.914 161.544H58.3066C58.9607 161.544 59.4906 162.074 59.4906 162.728C59.4906 163.382 58.9607 163.912 58.3066 163.912Z" fill="black"/>
<path d="M192.7 163.912H187.307C186.653 163.912 186.123 163.382 186.123 162.728C186.123 162.074 186.653 161.544 187.307 161.544H192.7C193.354 161.544 193.884 162.074 193.884 162.728C193.884 163.382 193.354 163.912 192.7 163.912Z" fill="black"/>
<path d="M202.977 163.912H197.585C196.931 163.912 196.401 163.382 196.401 162.728C196.401 162.074 196.931 161.544 197.585 161.544H202.977C203.631 161.544 204.161 162.074 204.161 162.728C204.161 163.382 203.631 163.912 202.977 163.912Z" fill="black"/>
<path d="M219.254 169.714H213.862C213.208 169.714 212.678 169.184 212.678 168.53C212.678 167.876 213.208 167.346 213.862 167.346H219.254C219.909 167.346 220.438 167.876 220.438 168.53C220.438 169.184 219.909 169.714 219.254 169.714Z" fill="black"/>
</svg>
