<?xml version="1.0" encoding="iso-8859-1"?>
<!-- Uploaded to: SVG Repo, www.svgrepo.com, Generator: SVG Repo Mixer Tools -->
<svg height="800px" width="800px" version="1.1" id="Layer_1" xmlns="http://www.w3.org/2000/svg" xmlns:xlink="http://www.w3.org/1999/xlink" 
	 viewBox="0 0 511.672 511.672" xml:space="preserve">
<path style="fill:#ED5564;" d="M227.674,44.901c0,0,0.047-0.031,0.141-0.109c-0.031,0.031-3.342,2.437-9.088,3.514
	c-7.745,1.437-16.208-0.109-25.14-4.591c-31.386-15.771-68.175-0.968-69.721-0.344l0.016,0.062c-3.88,1.593-6.621,5.403-6.621,9.869
	c0,5.887,4.771,10.649,10.657,10.649c1.694,0,3.295-0.406,4.716-1.109c4.466-1.624,30.816-10.416,51.381-0.078
	c10.954,5.497,20.706,7.371,28.919,7.371c17.028,0,27.42-8.073,28.044-8.573L227.674,44.901z"/>
<g>
	<path style="fill:#7F4545;" d="M234.514,31.973c-5.887,0-10.657,4.778-10.657,10.665v351.704h21.322V42.638
		C245.179,36.751,240.401,31.973,234.514,31.973z"/>
	<path style="fill:#7F4545;" d="M511.672,319.655c0-5.887-4.777-10.665-10.648-10.665c-1.031,0-2.016,0.156-2.951,0.422l0,0
		l-0.234,0.062l0,0l-108.213,31.073l5.871,20.487l108.463-31.137l0,0C508.408,328.618,511.672,324.512,511.672,319.655z"/>
</g>
<path style="fill:#A85D5D;" d="M10.689,308.99l99.725,33.385c0,0,39.116,41.239,124.1,41.239c85,0,106.611-29.138,106.611-29.138
	l85.258-24.484c9.588,160.21-122.656,149.561-122.656,149.561H115.294c-86.171-5.996-73.633-88.568-73.633-88.568l-13.187-9.728
	l-4.208-18.021L0,351.635L10.689,308.99z"/>
<path style="fill:#965353;" d="M426.664,335.317c-5.871,132.337-122.938,122.905-122.938,122.905H115.294
	c-57.409-3.981-71.001-41.973-73.68-66.879c-0.765,5.84-9.205,82.432,73.68,88.209h188.433
	C303.727,479.553,433.004,489.968,426.664,335.317z"/>
<g>
	<path style="fill:#434A54;" d="M277.166,415.594c0,5.887,4.763,10.649,10.649,10.649c5.888,0,10.649-4.763,10.649-10.649
		s-4.762-10.665-10.649-10.665C281.929,404.929,277.166,409.707,277.166,415.594z"/>
	<path style="fill:#434A54;" d="M234.514,415.594c0,5.887,4.778,10.649,10.665,10.649s10.657-4.763,10.657-10.649
		s-4.77-10.665-10.657-10.665S234.514,409.707,234.514,415.594z"/>
	<path style="fill:#434A54;" d="M191.877,415.594c0,5.887,4.771,10.649,10.657,10.649s10.665-4.763,10.665-10.649
		s-4.778-10.665-10.665-10.665S191.877,409.707,191.877,415.594z"/>
	<path style="fill:#434A54;" d="M149.24,415.594c0,5.887,4.771,10.649,10.657,10.649s10.657-4.763,10.657-10.649
		s-4.771-10.665-10.657-10.665S149.24,409.707,149.24,415.594z"/>
	<path style="fill:#434A54;" d="M99.569,330.305C114.942,207.719,74.616,95.869,74.616,95.869h260.169
		c80.105,93.783,24.953,234.561,24.953,234.561C262.832,285.849,99.569,330.305,99.569,330.305z"/>
</g>
<g style="opacity:0.1;">
	<path style="fill:#FFFFFF;" d="M334.785,95.869h-21.314c69.206,81.026,37.445,197.147,27.529,227.222
		c6.434,2.123,12.695,4.56,18.738,7.339C359.738,330.43,414.891,189.652,334.785,95.869z"/>
</g>
<path style="fill:#E6E9ED;" d="M170.555,196.477c0-35.321,28.638-63.959,63.959-63.959c35.329,0,63.951,28.638,63.951,63.959
	c0,18.941-8.213,35.961-21.299,47.672v26.952h-85.289v-26.952C178.792,232.438,170.555,215.418,170.555,196.477z"/>
<g>
	<path style="fill:#434A54;" d="M250.503,196.477c0,5.887,4.778,10.665,10.665,10.665c5.888,0,10.658-4.778,10.658-10.665
		s-4.771-10.665-10.658-10.665C255.282,185.812,250.503,190.59,250.503,196.477z"/>
	<path style="fill:#434A54;" d="M197.21,196.477c0,5.887,4.771,10.665,10.657,10.665s10.657-4.778,10.657-10.665
		s-4.771-10.665-10.657-10.665S197.21,190.59,197.21,196.477z"/>
</g>
<g>
	<path style="fill:#CCD1D9;" d="M277.166,271.085c-0.016-5.871-4.777-10.649-10.673-10.649c-5.887,0-10.657,4.778-10.657,10.665
		h21.33V271.085z"/>
	<path style="fill:#CCD1D9;" d="M255.836,271.085c0-5.871-4.77-10.649-10.657-10.649s-10.665,4.778-10.665,10.665h21.322V271.085z"
		/>
	<path style="fill:#CCD1D9;" d="M234.514,271.085c0-5.871-4.771-10.649-10.657-10.649s-10.657,4.778-10.657,10.665h21.314V271.085z"
		/>
	<path style="fill:#CCD1D9;" d="M213.199,271.085c-0.008-5.871-4.778-10.649-10.665-10.649s-10.657,4.778-10.657,10.665h21.322
		L213.199,271.085L213.199,271.085z"/>
</g>
</svg>