<svg width="20" height="21" viewBox="0 0 20 21" fill="none" xmlns="http://www.w3.org/2000/svg">
<path d="M17.5 5.48356C14.725 5.20856 11.9333 5.06689 9.15 5.06689C7.5 5.06689 5.85 5.15023 4.2 5.31689L2.5 5.48356" stroke="#C21D53" stroke-width="1.5" stroke-linecap="round" stroke-linejoin="round"/>
<path d="M7.08334 4.6415L7.26668 3.54984C7.40001 2.75817 7.50001 2.1665 8.90834 2.1665H11.0917C12.5 2.1665 12.6083 2.7915 12.7333 3.55817L12.9167 4.6415" stroke="#C21D53" stroke-width="1.5" stroke-linecap="round" stroke-linejoin="round"/>
<path d="M15.7083 8.1167L15.1667 16.5084C15.075 17.8167 15 18.8334 12.675 18.8334H7.32499C4.99999 18.8334 4.92499 17.8167 4.83332 16.5084L4.29166 8.1167" stroke="#C21D53" stroke-width="1.5" stroke-linecap="round" stroke-linejoin="round"/>
<path d="M8.60834 14.25H11.3833" stroke="#C21D53" stroke-width="1.5" stroke-linecap="round" stroke-linejoin="round"/>
<path d="M7.91666 10.9165H12.0833" stroke="#C21D53" stroke-width="1.5" stroke-linecap="round" stroke-linejoin="round"/>
</svg>
